:SAMPLES-PER-SECOND 24
:FULLY-SPECIFIED
:DEGREES
508
root  8.86719 35.1748 -36.3656 -4.28436 63.2934 -5.40424
RightUpLeg  30.523 -48.8327 -44.1357
RightLeg  31.9844 8.19652 5.2524
RightFoot  -21.1552 1.71265 21.403
RightToes  -1.46215e-006 3.27826e-006 1.63871e-007
Spine  13.6516 13.2771 28.135
Spine1  2.97513 19.5942 -15.5306
HEad  4.99578 -4.09468 -19.5043
LeftShoulder1  1.7771 -2.46474 -23.5186
LeftArm  78.5245 -56.4319 -109.919
LeftForeArm  34.2403 -75.2125 -45.28
LeftHand  0.0719442 13.7278 1.96999
RightShoulder  2.40804 7.46852 15.1739
RightArm  5.29133 76.2782 87.2327
RightForeArm  -58.526 20.2216 8.12673
RightHand  -0.345201 4.76948 -4.23587
LeftUpLeg  -41.9262 -0.439544 7.72621
LeftLeg  43.4244 -11.8043 -11.3416
LeftFoot  1.15885 1.14963 -10.54
LeftToes  1.24762e-006 1.46925e-008 1.29056e-009
509
root  8.7282 35.0096 -36.2848 -5.10712 62.5513 -6.16934
RightUpLeg  28.3186 -47.6295 -41.8516
RightLeg  33.5212 7.3944 5.00633
RightFoot  -22.1842 1.92042 21.5982
RightToes  -1.46215e-006 3.27826e-006 1.63871e-007
Spine  12.4523 13.1827 26.81
Spine1  4.77063 19.0575 -13.9213
HEad  1.21263 -2.09862 -17.3092
LeftShoulder1  1.7219 -2.33646 -23.2104
LeftArm  67.4886 -59.0164 -102.456
LeftForeArm  47.4905 -77.7113 -59.6468
LeftHand  0.921749 14.9205 11.9058
RightShoulder  2.21727 7.26601 13.6781
RightArm  23.3576 78.1838 98.3648
RightForeArm  -58.384 18.2733 9.48893
RightHand  -0.550244 2.72645 -8.06645
LeftUpLeg  -42.4701 0.328297 8.37618
LeftLeg  44.6449 -11.4952 -11.5228
LeftFoot  0.928525 1.08827 -10.1581
LeftToes  1.24762e-006 1.46925e-008 1.29056e-009
510
root  8.66796 34.8819 -36.2465 -6.07971 60.1758 -7.19518
RightUpLeg  26.2438 -46.6698 -40.2331
RightLeg  34.7952 8.2663 5.89434
RightFoot  -22.8531 2.02717 21.4323
RightToes  -1.46215e-006 3.27826e-006 1.63871e-007
Spine  11.4905 12.8673 26.3078
Spine1  5.72129 18.4876 -13.3073
HEad  -0.741293 0.703718 -15.8171
LeftShoulder1  1.81775 -2.58524 -23.599
LeftArm  55.7989 -58.3915 -94.0287
LeftForeArm  74.2195 -79.3918 -85.8388
LeftHand  1.68885 14.6584 20.8874
RightShoulder  2.10335 6.79751 13.4962
RightArm  34.2393 78.2387 113.67
RightForeArm  -50.6924 13.6832 10.9722
RightHand  -0.614298 2.07547 -9.69846
LeftUpLeg  -42.6874 1.75391 9.65597
LeftLeg  46.0348 -10.6706 -11.228
LeftFoot  0.227552 1.00291 -9.89376
LeftToes  1.24762e-006 1.46925e-008 1.29056e-009
511
root  8.77365 34.8075 -36.2557 -6.8308 55.769 -8.64722
RightUpLeg  23.1592 -45.5723 -37.966
RightLeg  35.586 10.5876 7.80641
RightFoot  -22.7803 1.96331 20.9433
RightToes  -1.46215e-006 3.27826e-006 1.63871e-007
Spine  11.0899 12.6724 26.9142
Spine1  5.5334 18.3205 -13.9748
HEad  -2.12207 4.67022 -15.5268
LeftShoulder1  1.82175 -2.78334 -22.675
LeftArm  42.1246 -52.8085 -81.9775
LeftForeArm  121.706 -75.6362 -132.74
LeftHand  1.8193 17.14 18.1337
RightShoulder  2.01524 6.36138 13.5004
RightArm  36.044 76.1232 120.938
RightForeArm  -39.5626 9.67993 11.9028
RightHand  -0.871201 2.42881 -13.0106
LeftUpLeg  -42.743 4.60887 11.7276
LeftLeg  47.6799 -9.65268 -10.7553
LeftFoot  -1.29411 0.901528 -10.1451
LeftToes  1.24762e-006 1.46925e-008 1.29056e-009
512
root  9.05577 34.8938 -36.2763 -6.23975 48.5131 -9.34837
RightUpLeg  17.0237 -42.1063 -32.8827
RightLeg  35.1001 12.3214 8.92948
RightFoot  -21.9319 1.75708 20.3771
RightToes  -1.46215e-006 3.27826e-006 1.63871e-007
Spine  9.38074 12.445 25.8731
Spine1  6.32965 17.3628 -12.801
HEad  -4.78999 13.5456 -17.2162
LeftShoulder1  1.74542 -3.02467 -20.2958
LeftArm  24.4393 -42.879 -65.5066
LeftForeArm  147.93 -65.2705 -156.304
LeftHand  1.119 18.3778 10.4407
RightShoulder  2.01457 5.82956 14.7833
RightArm  55.0479 71.0774 123.022
RightForeArm  -37.5597 13.2149 13.1897
RightHand  -0.717019 -0.398739 -16.656
LeftUpLeg  -41.7011 9.71012 14.0909
LeftLeg  48.7416 -8.5445 -9.86804
LeftFoot  -3.39714 0.787747 -11.0266
LeftToes  1.24762e-006 1.46925e-008 1.29056e-009
513
root  9.50208 35.1382 -36.2727 -5.08252 40.178 -9.51787
RightUpLeg  11.1637 -36.9621 -27.8023
RightLeg  32.8154 13.4364 8.95164
RightFoot  -20.3999 1.48259 20.2842
RightToes  -1.46215e-006 3.27826e-006 1.63871e-007
Spine  6.25282 10.9238 22.2269
Spine1  8.27097 14.0862 -8.83057
HEad  -10.5737 26.8526 -21.6846
LeftShoulder1  1.84607 -3.61286 -19.4374
LeftArm  4.43582 -29.3791 -44.2408
LeftForeArm  155.579 -55.6784 -164.232
LeftHand  0.0963726 12.0498 2.36849
RightShoulder  2.39138 5.51599 20.136
RightArm  78.8642 61.6712 113.872
RightForeArm  -45.3645 29.2235 7.50598
RightHand  -0.164084 -4.36418 -16.546
LeftUpLeg  -39.2818 15.109 16.3578
LeftLeg  48.9503 -7.21373 -8.35427
LeftFoot  -5.4624 0.651235 -12.0078
LeftToes  1.24762e-006 1.46925e-008 1.29056e-009
514
root  10.0297 35.4221 -36.2313 -4.46846 32.8932 -10.1956
RightUpLeg  7.82821 -32.2378 -24.1572
RightLeg  29.2613 14.5949 8.48103
RightFoot  -18.2569 1.15212 20.9299
RightToes  -1.46215e-006 3.27826e-006 1.63871e-007
Spine  3.43023 8.31675 15.0424
Spine1  9.60607 8.34336 0.0583504
HEad  -20.0806 39.6059 -30.1969
LeftShoulder1  1.94299 -3.87264 -19.8972
LeftArm  -11.8065 -8.11248 -20.7294
LeftForeArm  153.192 -49.9413 -167.311
LeftHand  -0.161576 6.34714 -10.9931
RightShoulder  2.82348 5.54028 25.149
RightArm  57.3816 49.497 89.8142
RightForeArm  -17.4842 52.0447 15.9119
RightHand  0.310678 -7.97772 -14.9081
LeftUpLeg  -36.4592 19.3756 18.6934
LeftLeg  48.9236 -5.84171 -6.69178
LeftFoot  -7.07644 0.51539 -12.6625
LeftToes  1.24762e-006 1.46925e-008 1.29056e-009
515
root  10.5216 35.6433 -36.1616 -4.22519 27.5914 -11.0535
RightUpLeg  6.47198 -28.742 -21.8112
RightLeg  25.5222 15.5401 7.74073
RightFoot  -15.9494 0.778132 21.8199
RightToes  -1.46215e-006 3.27826e-006 1.63871e-007
Spine  2.20838 5.78544 7.34548
Spine1  9.34084 2.62165 10.4158
HEad  -28.7617 48.6443 -39.7786
LeftShoulder1  1.63846 -3.25003 -17.6276
LeftArm  -16.7958 9.35378 -5.73479
LeftForeArm  149.224 -64.3451 -161.776
LeftHand  0.732912 0.663265 -16.2247
RightShoulder  2.96626 5.62529 26.4818
RightArm  37.7889 30.8073 60.4567
RightForeArm  21.4398 75.4842 55.3416
RightHand  0.954101 -11.5188 -18.2289
LeftUpLeg  -34.0741 22.605 20.6386
LeftLeg  49.0112 -4.88165 -5.54283
LeftFoot  -8.22844 0.40442 -13.0342
LeftToes  1.24762e-006 1.46925e-008 1.29056e-009
516
root  10.8886 35.7666 -36.0863 -4.40179 25.1943 -11.1218
RightUpLeg  6.96152 -26.493 -21.3478
RightLeg  22.6496 15.3919 6.74462
RightFoot  -14.3781 0.498992 22.276
RightToes  -1.46215e-006 3.27826e-006 1.63871e-007
Spine  2.41276 4.08343 3.37609
Spine1  8.81658 -0.618346 15.7871
HEad  -31.6927 52.7483 -44.5869
LeftShoulder1  1.18584 -2.33618 -13.3077
LeftArm  -12.0306 1.89989 -1.59403
LeftForeArm  25.9761 -61.0379 -18.1362
LeftHand  0.062228 -7.38231 -0.201238
RightShoulder  3.0719 5.80284 27.0152
RightArm  24.5037 5.54297 39.3766
RightForeArm  78.7274 74.4271 129.639
RightHand  1.3125 -12.3054 -22.0146
LeftUpLeg  -32.2204 23.9519 21.314
LeftLeg  49.0862 -4.47799 -5.06285
LeftFoot  -9.00249 0.319044 -12.9516
LeftToes  1.24762e-006 1.46925e-008 1.29056e-009
517
root  11.0954 35.8056 -36.0036 -4.79205 25.0389 -10.6834
RightUpLeg  8.03546 -24.6739 -21.6395
RightLeg  21.2489 13.8902 5.68655
RightFoot  -13.8008 0.39127 22.3628
RightToes  -1.46215e-006 3.27826e-006 1.63871e-007
Spine  3.41204 2.36929 1.81736
Spine1  9.0556 -2.66491 16.5285
HEad  -33.9163 53.5525 -46.4262
LeftShoulder1  0.848498 -1.32393 -10.2897
LeftArm  -4.22114 -16.8807 2.23993
LeftForeArm  22.5248 -6.97113 -7.99116
LeftHand  -0.506923 0.2008 10.6817
RightShoulder  3.49675 6.2234 30.0307
RightArm  14.2856 -20.5729 26.7837
RightForeArm  76.4332 65.2066 150.875
RightHand  1.57867 -13.3854 -22.7262
LeftUpLeg  -31.1911 23.8751 21.0507
LeftLeg  49.2435 -4.45299 -5.06201
LeftFoot  -9.38465 0.270253 -12.5079
LeftToes  1.24762e-006 1.46925e-008 1.29056e-009
518
root  11.2101 35.8458 -35.935 -4.60193 24.7677 -10.583
RightUpLeg  7.93084 -23.157 -21.1646
RightLeg  20.5021 12.6034 4.96398
RightFoot  -13.2419 0.287795 22.5622
RightToes  -1.46215e-006 3.27826e-006 1.63871e-007
Spine  3.72388 0.542341 -0.203921
Spine1  10.1333 -5.11173 17.6329
HEad  -38.788 54.3869 -50.2696
LeftShoulder1  0.55599 0.100892 -8.88361
LeftArm  -11.6925 -21.5715 7.83981
LeftForeArm  29.2994 6.45651 -13.086
LeftHand  -0.5089 0.344362 11.5051
RightShoulder  3.916 6.52123 33.1841
RightArm  10.3214 -38.397 21.0105
RightForeArm  68.2867 59.787 156.855
RightHand  0.78112 -10.1915 -18.9306
LeftUpLeg  -31.0768 24.5202 20.8487
LeftLeg  49.3474 -4.50902 -5.15018
LeftFoot  -9.34788 0.269782 -12.2614
LeftToes  1.24762e-006 1.46925e-008 1.29056e-009
519
root  11.304 35.9745 -35.9484 -4.3316 23.4918 -10.6463
RightUpLeg  7.57858 -22.4528 -20.6747
RightLeg  19.1519 12.6228 4.63312
RightFoot  -11.9967 0.0485149 22.6364
RightToes  -1.46215e-006 3.27826e-006 1.63871e-007
Spine  3.39566 -0.344378 -1.78059
Spine1  11.2709 -6.81576 19.4608
HEad  -40.0227 55.8045 -52.4774
LeftShoulder1  0.387894 1.00445 -7.9797
LeftArm  -9.03269 -19.2354 7.32383
LeftForeArm  23.6087 -1.95893 -12.8137
LeftHand  -0.841247 -2.46249 12.624
RightShoulder  3.93552 6.52633 33.3537
RightArm  9.96525 -44.5096 19.5243
RightForeArm  63.6131 60.7504 155.859
RightHand  0.146208 -6.33063 -20.5199
LeftUpLeg  -30.4505 25.893 21.0376
LeftLeg  48.7839 -4.48577 -5.01471
LeftFoot  -9.1464 0.288352 -12.1652
LeftToes  1.24762e-006 1.46925e-008 1.29056e-009
520
root  11.3134 36.1415 -36.0369 -4.54211 21.8331 -10.3226
RightUpLeg  7.52796 -22.381 -20.9258
RightLeg  18.228 13.4766 4.71092
RightFoot  -10.7528 -0.187998 21.9934
RightToes  -1.46215e-006 3.27826e-006 1.63871e-007
Spine  4.09137 -0.479879 -1.89087
Spine1  11.5079 -7.06845 19.5905
HEad  -38.1189 55.976 -50.7598
LeftShoulder1  0.450683 0.663355 -8.36419
LeftArm  -9.15232 -20.5739 6.2142
LeftForeArm  25.2093 -0.860748 -13.0798
LeftHand  -0.630299 -0.101381 13.4022
RightShoulder  3.78837 6.41306 32.317
RightArm  8.38649 -42.7947 21.0388
RightForeArm  57.9842 62.9832 153.519
RightHand  0.153624 -5.96297 -30.4678
LeftUpLeg  -28.6445 26.6984 21.3934
LeftLeg  47.5776 -4.30455 -4.58592
LeftFoot  -9.04076 0.303409 -12.3831
LeftToes  1.24762e-006 1.46925e-008 1.29056e-009
521
root  11.1831 36.2479 -36.1485 -4.01933 19.5906 -9.55511
RightUpLeg  5.49655 -22.9155 -21.3658
RightLeg  19.6934 15.2671 5.79156
RightFoot  -10.1971 -0.282653 21.0612
RightToes  -1.46215e-006 3.27826e-006 1.63871e-007
Spine  5.05736 -0.460918 -1.73378
Spine1  11.264 -6.72648 18.5684
HEad  -39.8686 55.0845 -50.6935
LeftShoulder1  0.552995 0.286365 -9.85314
LeftArm  -8.33565 -19.6692 8.22712
LeftForeArm  28.0267 0.115746 -13.1763
LeftHand  -0.750701 -0.609476 14.6081
RightShoulder  3.72602 6.35636 31.9025
RightArm  6.64122 -40.202 22.4772
RightForeArm  59.2035 62.3313 154.231
RightHand  1.4643 -9.76944 -37.2931
LeftUpLeg  -27.3546 27.5605 21.3602
LeftLeg  46.384 -3.61083 -3.61242
LeftFoot  -8.7542 0.355254 -13.3584
LeftToes  1.24762e-006 1.46925e-008 1.29056e-009
522
root  10.9298 36.2638 -36.3036 -2.56584 16.4321 -8.20534
RightUpLeg  0.960971 -23.9436 -21.9098
RightLeg  23.6639 17.2634 7.92974
RightFoot  -10.1504 -0.284014 20.4309
RightToes  -1.46215e-006 3.27826e-006 1.63871e-007
Spine  5.2215 0.0895443 -1.60442
Spine1  11.2987 -5.67716 16.8919
HEad  -43.0126 54.9842 -52.5775
LeftShoulder1  0.533364 0.497368 -10.4487
LeftArm  -4.99644 -16.0693 9.30648
LeftForeArm  25.7272 -7.17865 -11.6732
LeftHand  -0.952631 -1.82826 15.4701
RightShoulder  3.68449 6.33466 31.5606
RightArm  7.13036 -39.6606 22.817
RightForeArm  67.113 59.732 156.815
RightHand  2.2697 -11.5272 -40.7344
LeftUpLeg  -26.9164 29.4104 20.662
LeftLeg  45.4644 -2.52921 -2.31353
LeftFoot  -8.15443 0.442507 -14.1066
LeftToes  1.24762e-006 1.46925e-008 1.29056e-009
